<mxfile host="app.diagrams.net" modified="2024-07-09T09:41:10.228Z" agent="Mozilla/5.0 (Windows NT 10.0; Win64; x64) AppleWebKit/537.36 (KHTML, like Gecko) Chrome/126.0.0.0 Safari/537.36" etag="u6ARcaw1FprcEpzmoiPa" version="24.6.4" type="github" pages="2">
  <diagram name="Page-1" id="_bZB6tzb-iQCvi6k8a9e">
    <mxGraphModel dx="1008" dy="1141" grid="0" gridSize="10" guides="1" tooltips="1" connect="1" arrows="1" fold="1" page="0" pageScale="1" pageWidth="850" pageHeight="1100" background="none" math="0" shadow="0">
      <root>
        <mxCell id="0" />
        <mxCell id="1" parent="0" />
        <mxCell id="MHqTSwmImKqVIrDJWGN4-1" value="&lt;font style=&quot;font-size: 15px;&quot;&gt;Admin&lt;/font&gt;" style="rounded=0;whiteSpace=wrap;html=1;fillColor=#dae8fc;strokeColor=#6c8ebf;" parent="1" vertex="1">
          <mxGeometry x="-396" y="-200" width="108" height="38" as="geometry" />
        </mxCell>
        <mxCell id="MHqTSwmImKqVIrDJWGN4-16" value="" style="endArrow=none;html=1;rounded=0;fontSize=12;startSize=8;endSize=8;curved=1;" parent="1" edge="1">
          <mxGeometry width="50" height="50" relative="1" as="geometry">
            <mxPoint x="-288" y="-181" as="sourcePoint" />
            <mxPoint x="-253" y="-181" as="targetPoint" />
          </mxGeometry>
        </mxCell>
        <mxCell id="MHqTSwmImKqVIrDJWGN4-17" value="Manages" style="rhombus;whiteSpace=wrap;html=1;" parent="1" vertex="1">
          <mxGeometry x="-252" y="-214.5" width="67" height="67" as="geometry" />
        </mxCell>
        <mxCell id="MHqTSwmImKqVIrDJWGN4-20" value="" style="endArrow=none;html=1;rounded=0;fontSize=12;startSize=8;endSize=8;curved=1;" parent="1" edge="1">
          <mxGeometry width="50" height="50" relative="1" as="geometry">
            <mxPoint x="-186" y="-181" as="sourcePoint" />
            <mxPoint x="-94" y="-344" as="targetPoint" />
          </mxGeometry>
        </mxCell>
        <mxCell id="MHqTSwmImKqVIrDJWGN4-27" value="" style="endArrow=none;html=1;rounded=0;fontSize=12;startSize=8;endSize=8;curved=1;" parent="1" edge="1">
          <mxGeometry width="50" height="50" relative="1" as="geometry">
            <mxPoint x="-96" y="-341" as="sourcePoint" />
            <mxPoint x="-36" y="-344" as="targetPoint" />
          </mxGeometry>
        </mxCell>
        <mxCell id="MHqTSwmImKqVIrDJWGN4-28" value="" style="endArrow=none;html=1;rounded=0;fontSize=12;startSize=8;endSize=8;curved=1;" parent="1" edge="1">
          <mxGeometry width="50" height="50" relative="1" as="geometry">
            <mxPoint x="-184" y="-181" as="sourcePoint" />
            <mxPoint x="-84" y="-270" as="targetPoint" />
          </mxGeometry>
        </mxCell>
        <mxCell id="MHqTSwmImKqVIrDJWGN4-29" value="" style="endArrow=none;html=1;rounded=0;fontSize=12;startSize=8;endSize=8;curved=1;" parent="1" edge="1">
          <mxGeometry width="50" height="50" relative="1" as="geometry">
            <mxPoint x="-186" y="-182" as="sourcePoint" />
            <mxPoint x="-88" y="-98" as="targetPoint" />
          </mxGeometry>
        </mxCell>
        <mxCell id="MHqTSwmImKqVIrDJWGN4-30" value="" style="endArrow=none;html=1;rounded=0;fontSize=12;startSize=8;endSize=8;curved=1;" parent="1" edge="1">
          <mxGeometry width="50" height="50" relative="1" as="geometry">
            <mxPoint x="-185" y="-181" as="sourcePoint" />
            <mxPoint x="-83" y="-13.20001220703125" as="targetPoint" />
          </mxGeometry>
        </mxCell>
        <mxCell id="MHqTSwmImKqVIrDJWGN4-31" value="" style="endArrow=none;html=1;rounded=0;fontSize=12;startSize=8;endSize=8;curved=1;" parent="1" edge="1">
          <mxGeometry width="50" height="50" relative="1" as="geometry">
            <mxPoint x="-83" y="-13" as="sourcePoint" />
            <mxPoint x="-30" y="-15" as="targetPoint" />
          </mxGeometry>
        </mxCell>
        <mxCell id="MHqTSwmImKqVIrDJWGN4-32" value="" style="endArrow=none;html=1;rounded=0;fontSize=12;startSize=8;endSize=8;curved=1;" parent="1" edge="1">
          <mxGeometry width="50" height="50" relative="1" as="geometry">
            <mxPoint x="-88" y="-97" as="sourcePoint" />
            <mxPoint x="-40" y="-99" as="targetPoint" />
          </mxGeometry>
        </mxCell>
        <mxCell id="MHqTSwmImKqVIrDJWGN4-34" value="" style="endArrow=none;html=1;rounded=0;fontSize=12;startSize=8;endSize=8;curved=1;" parent="1" edge="1">
          <mxGeometry width="50" height="50" relative="1" as="geometry">
            <mxPoint x="-85" y="-270" as="sourcePoint" />
            <mxPoint x="-38" y="-272" as="targetPoint" />
          </mxGeometry>
        </mxCell>
        <mxCell id="MHqTSwmImKqVIrDJWGN4-35" value="Student" style="rounded=0;whiteSpace=wrap;html=1;fillColor=#dae8fc;strokeColor=#6c8ebf;" parent="1" vertex="1">
          <mxGeometry x="-34" y="-365" width="93" height="42" as="geometry" />
        </mxCell>
        <mxCell id="MHqTSwmImKqVIrDJWGN4-36" value="Login" style="rounded=0;whiteSpace=wrap;html=1;fillColor=#dae8fc;strokeColor=#6c8ebf;" parent="1" vertex="1">
          <mxGeometry x="-38" y="-292" width="97" height="42" as="geometry" />
        </mxCell>
        <mxCell id="MHqTSwmImKqVIrDJWGN4-37" value="Register" style="rounded=0;whiteSpace=wrap;html=1;fillColor=#dae8fc;strokeColor=#6c8ebf;" parent="1" vertex="1">
          <mxGeometry x="-40" y="-128" width="99" height="46" as="geometry" />
        </mxCell>
        <mxCell id="MHqTSwmImKqVIrDJWGN4-38" value="Instructor" style="rounded=0;whiteSpace=wrap;html=1;fillColor=#dae8fc;strokeColor=#6c8ebf;" parent="1" vertex="1">
          <mxGeometry x="-34" y="-39" width="96" height="47" as="geometry" />
        </mxCell>
        <mxCell id="MHqTSwmImKqVIrDJWGN4-39" value="" style="endArrow=none;html=1;rounded=0;fontSize=12;startSize=8;endSize=8;curved=1;exitX=0.108;exitY=0.048;exitDx=0;exitDy=0;exitPerimeter=0;" parent="1" source="MHqTSwmImKqVIrDJWGN4-35" edge="1">
          <mxGeometry width="50" height="50" relative="1" as="geometry">
            <mxPoint x="-27" y="-367" as="sourcePoint" />
            <mxPoint x="-50" y="-393" as="targetPoint" />
          </mxGeometry>
        </mxCell>
        <mxCell id="MHqTSwmImKqVIrDJWGN4-40" value="" style="endArrow=none;html=1;rounded=0;fontSize=12;startSize=8;endSize=8;curved=1;" parent="1" target="MHqTSwmImKqVIrDJWGN4-43" edge="1">
          <mxGeometry width="50" height="50" relative="1" as="geometry">
            <mxPoint x="-12" y="-366" as="sourcePoint" />
            <mxPoint x="-36" y="-412" as="targetPoint" />
          </mxGeometry>
        </mxCell>
        <mxCell id="MHqTSwmImKqVIrDJWGN4-42" value="ID(PK)" style="ellipse;whiteSpace=wrap;html=1;align=center;fontStyle=4;" parent="1" vertex="1">
          <mxGeometry x="-135" y="-420" width="87" height="40" as="geometry" />
        </mxCell>
        <mxCell id="MHqTSwmImKqVIrDJWGN4-43" value="Date Of Birth" style="ellipse;whiteSpace=wrap;html=1;align=center;" parent="1" vertex="1">
          <mxGeometry x="-91" y="-460" width="78" height="41" as="geometry" />
        </mxCell>
        <mxCell id="MHqTSwmImKqVIrDJWGN4-44" value="" style="endArrow=none;html=1;rounded=0;fontSize=12;startSize=8;endSize=8;curved=1;entryX=0;entryY=1;entryDx=0;entryDy=0;" parent="1" target="MHqTSwmImKqVIrDJWGN4-46" edge="1">
          <mxGeometry relative="1" as="geometry">
            <mxPoint x="-16" y="-365" as="sourcePoint" />
            <mxPoint x="38" y="-410" as="targetPoint" />
          </mxGeometry>
        </mxCell>
        <mxCell id="MHqTSwmImKqVIrDJWGN4-46" value="email" style="whiteSpace=wrap;html=1;align=center;shape=ellipse;perimeter=ellipsePerimeter;" parent="1" vertex="1">
          <mxGeometry x="-10" y="-451" width="71" height="31" as="geometry" />
        </mxCell>
        <mxCell id="MHqTSwmImKqVIrDJWGN4-48" value="" style="endArrow=none;html=1;rounded=0;fontSize=12;startSize=8;endSize=8;curved=1;" parent="1" edge="1">
          <mxGeometry relative="1" as="geometry">
            <mxPoint x="-15" y="-366" as="sourcePoint" />
            <mxPoint x="35" y="-396" as="targetPoint" />
          </mxGeometry>
        </mxCell>
        <mxCell id="MHqTSwmImKqVIrDJWGN4-50" value="" style="endArrow=none;html=1;rounded=0;fontSize=12;startSize=8;endSize=8;curved=1;" parent="1" edge="1">
          <mxGeometry relative="1" as="geometry">
            <mxPoint x="-87" y="-366" as="sourcePoint" />
            <mxPoint x="-16" y="-366" as="targetPoint" />
          </mxGeometry>
        </mxCell>
        <mxCell id="MHqTSwmImKqVIrDJWGN4-51" value="Name" style="ellipse;whiteSpace=wrap;html=1;align=center;" parent="1" vertex="1">
          <mxGeometry x="-176" y="-379" width="89" height="33" as="geometry" />
        </mxCell>
        <mxCell id="MHqTSwmImKqVIrDJWGN4-53" value="" style="endArrow=none;html=1;rounded=0;fontSize=12;startSize=8;endSize=8;curved=1;" parent="1" edge="1">
          <mxGeometry relative="1" as="geometry">
            <mxPoint x="-3" y="-292" as="sourcePoint" />
            <mxPoint x="77" y="-306" as="targetPoint" />
          </mxGeometry>
        </mxCell>
        <mxCell id="MHqTSwmImKqVIrDJWGN4-54" value="Login&amp;nbsp;" style="ellipse;whiteSpace=wrap;html=1;align=center;fontStyle=4;" parent="1" vertex="1">
          <mxGeometry x="76" y="-328" width="81" height="39" as="geometry" />
        </mxCell>
        <mxCell id="MHqTSwmImKqVIrDJWGN4-55" value="" style="endArrow=none;html=1;rounded=0;fontSize=12;startSize=8;endSize=8;curved=1;" parent="1" edge="1">
          <mxGeometry relative="1" as="geometry">
            <mxPoint x="59" y="-271" as="sourcePoint" />
            <mxPoint x="102" y="-271" as="targetPoint" />
          </mxGeometry>
        </mxCell>
        <mxCell id="MHqTSwmImKqVIrDJWGN4-56" value="UserName(FK)" style="ellipse;whiteSpace=wrap;html=1;align=center;" parent="1" vertex="1">
          <mxGeometry x="101" y="-284" width="87" height="38" as="geometry" />
        </mxCell>
        <mxCell id="MHqTSwmImKqVIrDJWGN4-57" value="" style="endArrow=none;html=1;rounded=0;fontSize=12;startSize=8;endSize=8;curved=1;" parent="1" edge="1">
          <mxGeometry relative="1" as="geometry">
            <mxPoint x="13" y="-250" as="sourcePoint" />
            <mxPoint x="71" y="-231" as="targetPoint" />
          </mxGeometry>
        </mxCell>
        <mxCell id="MHqTSwmImKqVIrDJWGN4-58" value="Password" style="ellipse;whiteSpace=wrap;html=1;align=center;" parent="1" vertex="1">
          <mxGeometry x="70" y="-246" width="88" height="36" as="geometry" />
        </mxCell>
        <mxCell id="MHqTSwmImKqVIrDJWGN4-59" value="" style="endArrow=none;html=1;rounded=0;fontSize=12;startSize=8;endSize=8;curved=1;" parent="1" edge="1">
          <mxGeometry relative="1" as="geometry">
            <mxPoint x="-10" y="-128" as="sourcePoint" />
            <mxPoint x="-51" y="-165" as="targetPoint" />
          </mxGeometry>
        </mxCell>
        <mxCell id="MHqTSwmImKqVIrDJWGN4-60" value="" style="endArrow=none;html=1;rounded=0;fontSize=12;startSize=8;endSize=8;curved=1;" parent="1" edge="1">
          <mxGeometry relative="1" as="geometry">
            <mxPoint x="-13" y="-129" as="sourcePoint" />
            <mxPoint x="-2" y="-179" as="targetPoint" />
          </mxGeometry>
        </mxCell>
        <mxCell id="MHqTSwmImKqVIrDJWGN4-61" value="" style="endArrow=none;html=1;rounded=0;fontSize=12;startSize=8;endSize=8;curved=1;" parent="1" edge="1">
          <mxGeometry relative="1" as="geometry">
            <mxPoint x="-17" y="-128" as="sourcePoint" />
            <mxPoint x="39" y="-164" as="targetPoint" />
          </mxGeometry>
        </mxCell>
        <mxCell id="M_15spo1ObYpfNHA64tI-49" value="" style="edgeStyle=orthogonalEdgeStyle;rounded=0;orthogonalLoop=1;jettySize=auto;html=1;" parent="1" source="MHqTSwmImKqVIrDJWGN4-62" target="M_15spo1ObYpfNHA64tI-31" edge="1">
          <mxGeometry relative="1" as="geometry" />
        </mxCell>
        <mxCell id="MHqTSwmImKqVIrDJWGN4-62" value="Name" style="ellipse;whiteSpace=wrap;html=1;align=center;" parent="1" vertex="1">
          <mxGeometry x="-109" y="-189" width="65" height="36" as="geometry" />
        </mxCell>
        <mxCell id="MHqTSwmImKqVIrDJWGN4-63" value="DateofBirth" style="ellipse;whiteSpace=wrap;html=1;align=center;" parent="1" vertex="1">
          <mxGeometry x="-43" y="-204" width="69" height="30" as="geometry" />
        </mxCell>
        <mxCell id="MHqTSwmImKqVIrDJWGN4-64" value="Email" style="ellipse;whiteSpace=wrap;html=1;align=center;" parent="1" vertex="1">
          <mxGeometry x="21" y="-189" width="72" height="29" as="geometry" />
        </mxCell>
        <mxCell id="MHqTSwmImKqVIrDJWGN4-65" value="" style="endArrow=none;html=1;rounded=0;fontSize=12;startSize=8;endSize=8;curved=1;" parent="1" edge="1">
          <mxGeometry relative="1" as="geometry">
            <mxPoint x="-17" y="-128" as="sourcePoint" />
            <mxPoint x="52" y="-145" as="targetPoint" />
          </mxGeometry>
        </mxCell>
        <mxCell id="MHqTSwmImKqVIrDJWGN4-66" value="Gender" style="ellipse;whiteSpace=wrap;html=1;align=center;" parent="1" vertex="1">
          <mxGeometry x="49" y="-160" width="70" height="29" as="geometry" />
        </mxCell>
        <mxCell id="MHqTSwmImKqVIrDJWGN4-67" value="" style="endArrow=none;html=1;rounded=0;fontSize=12;startSize=8;endSize=8;curved=1;" parent="1" edge="1">
          <mxGeometry relative="1" as="geometry">
            <mxPoint x="59" y="-348" as="sourcePoint" />
            <mxPoint x="219" y="-348" as="targetPoint" />
          </mxGeometry>
        </mxCell>
        <mxCell id="MHqTSwmImKqVIrDJWGN4-68" value="" style="endArrow=none;html=1;rounded=0;fontSize=12;startSize=8;endSize=8;curved=1;" parent="1" edge="1">
          <mxGeometry relative="1" as="geometry">
            <mxPoint x="219" y="-348" as="sourcePoint" />
            <mxPoint x="242" y="-309" as="targetPoint" />
          </mxGeometry>
        </mxCell>
        <mxCell id="MHqTSwmImKqVIrDJWGN4-69" value="Can" style="shape=rhombus;perimeter=rhombusPerimeter;whiteSpace=wrap;html=1;align=center;" parent="1" vertex="1">
          <mxGeometry x="198" y="-310" width="85" height="49" as="geometry" />
        </mxCell>
        <mxCell id="MHqTSwmImKqVIrDJWGN4-70" value="" style="line;strokeWidth=1;rotatable=0;dashed=0;labelPosition=right;align=left;verticalAlign=middle;spacingTop=0;spacingLeft=6;points=[];portConstraint=eastwest;" parent="1" vertex="1">
          <mxGeometry x="60" y="-290" width="138" height="10" as="geometry" />
        </mxCell>
        <mxCell id="MHqTSwmImKqVIrDJWGN4-73" value="" style="endArrow=classic;html=1;rounded=0;fontSize=12;startSize=8;endSize=8;curved=1;" parent="1" edge="1">
          <mxGeometry width="50" height="50" relative="1" as="geometry">
            <mxPoint x="198" y="-284" as="sourcePoint" />
            <mxPoint x="62" y="-284" as="targetPoint" />
          </mxGeometry>
        </mxCell>
        <mxCell id="MHqTSwmImKqVIrDJWGN4-76" value="" style="endArrow=none;html=1;rounded=0;fontSize=12;startSize=8;endSize=8;curved=1;" parent="1" edge="1">
          <mxGeometry relative="1" as="geometry">
            <mxPoint x="-97" y="13" as="sourcePoint" />
            <mxPoint x="-32" y="-5" as="targetPoint" />
          </mxGeometry>
        </mxCell>
        <mxCell id="MHqTSwmImKqVIrDJWGN4-77" value="" style="endArrow=none;html=1;rounded=0;fontSize=12;startSize=8;endSize=8;curved=1;exitX=0.949;exitY=0.206;exitDx=0;exitDy=0;exitPerimeter=0;" parent="1" source="MHqTSwmImKqVIrDJWGN4-79" edge="1">
          <mxGeometry relative="1" as="geometry">
            <mxPoint x="-43" y="41" as="sourcePoint" />
            <mxPoint x="-10" y="9" as="targetPoint" />
          </mxGeometry>
        </mxCell>
        <mxCell id="MHqTSwmImKqVIrDJWGN4-78" value="Name" style="ellipse;whiteSpace=wrap;html=1;align=center;" parent="1" vertex="1">
          <mxGeometry x="-177" y="-7" width="82" height="40" as="geometry" />
        </mxCell>
        <mxCell id="MHqTSwmImKqVIrDJWGN4-79" value="ID(PK)" style="ellipse;whiteSpace=wrap;html=1;align=center;fontStyle=4;" parent="1" vertex="1">
          <mxGeometry x="-135" y="33" width="79" height="34" as="geometry" />
        </mxCell>
        <mxCell id="MHqTSwmImKqVIrDJWGN4-80" value="" style="endArrow=none;html=1;rounded=0;fontSize=12;startSize=8;endSize=8;curved=1;entryX=0.593;entryY=-0.022;entryDx=0;entryDy=0;entryPerimeter=0;" parent="1" target="MHqTSwmImKqVIrDJWGN4-81" edge="1">
          <mxGeometry relative="1" as="geometry">
            <mxPoint x="1" y="9" as="sourcePoint" />
            <mxPoint x="-27" y="64" as="targetPoint" />
          </mxGeometry>
        </mxCell>
        <mxCell id="MHqTSwmImKqVIrDJWGN4-81" value="Address" style="ellipse;whiteSpace=wrap;html=1;align=center;" parent="1" vertex="1">
          <mxGeometry x="-122" y="71" width="77" height="31" as="geometry" />
        </mxCell>
        <mxCell id="MHqTSwmImKqVIrDJWGN4-83" value="" style="shape=stencil(fZbdcgIhDIWfZm8zQAg/17Z9j85U606tdqz9e/tmZ0c0uJ47xP0I5JwEBl59bp8/1kNwn6fj4W39M76ctgM/DCGM++36OJ50NPDjwKvN4bh+PR6+9i/z74/n6ctp9H74nlb4nbmSKZeJCu5vngmZ6jzzNAO7cX8FVKEsBuBKrgKg9oAE8gkCbLeUhEoEQKSUDZDLeWYRKIl8MEDRmHwfyBrBG6Amyu4+kDxxMoB3jhwgYu7TVAsVkFcWCs4CTBEoF4RctKeOxHIf8IXYpikHikAIf+MNUW94AGSSaoAoFIE3AlOyeWU+p2E5S9yfQZcQILVuQOwZdJNoS9Ls3wA5u2XZTIHECqeJ9kDpSaauRiNVcAY1QhdBzeLBli5WazpkSsBLV25uRaqWRyFawTQzRRIQYirJzq5atkBqLfouwqUxLBepthWb10vrWZY6UOAeyKCCtDV625mm9gmUC4Wc3VLJMMIE1BsA2FW9JraVlQB7n3c9oMKhCLEvIM1zBPZ25/umNQ1tVEC2G+fFCC8g398O2hNQuQlVu752DBfA+q0ptnqO5JFmeuIuo9DY7KjY71UxdJV4EntifPWorW++R/dC4t7V3DlIB5cHx2bc7eb3yvX//QNFp+bHDT/+Aw==);lineShape=1;strokeColor=default;" parent="1" vertex="1">
          <mxGeometry x="-214.13206967510246" y="-261.3246539721449" width="4.672539772115556" height="4.665236216357698" as="geometry" />
        </mxCell>
        <mxCell id="clrZJGk1RnbeG_WNLF2B-4" value="" style="endArrow=none;html=1;rounded=0;fontSize=12;startSize=8;endSize=8;curved=1;" parent="1" edge="1">
          <mxGeometry width="50" height="50" relative="1" as="geometry">
            <mxPoint x="242" y="-114" as="sourcePoint" />
            <mxPoint x="242" y="-262" as="targetPoint" />
          </mxGeometry>
        </mxCell>
        <mxCell id="clrZJGk1RnbeG_WNLF2B-7" value="" style="endArrow=classic;html=1;rounded=0;fontSize=12;startSize=8;endSize=8;curved=1;entryX=1;entryY=0.391;entryDx=0;entryDy=0;entryPerimeter=0;" parent="1" target="MHqTSwmImKqVIrDJWGN4-37" edge="1">
          <mxGeometry width="50" height="50" relative="1" as="geometry">
            <mxPoint x="241" y="-113" as="sourcePoint" />
            <mxPoint x="291" y="-163" as="targetPoint" />
          </mxGeometry>
        </mxCell>
        <mxCell id="clrZJGk1RnbeG_WNLF2B-8" value="" style="endArrow=none;html=1;rounded=0;fontSize=12;startSize=8;endSize=8;curved=1;" parent="1" edge="1">
          <mxGeometry width="50" height="50" relative="1" as="geometry">
            <mxPoint x="62" y="-9" as="sourcePoint" />
            <mxPoint x="174" y="-9" as="targetPoint" />
          </mxGeometry>
        </mxCell>
        <mxCell id="clrZJGk1RnbeG_WNLF2B-9" value="Can" style="rhombus;whiteSpace=wrap;html=1;" parent="1" vertex="1">
          <mxGeometry x="175" y="-36" width="80" height="57" as="geometry" />
        </mxCell>
        <mxCell id="clrZJGk1RnbeG_WNLF2B-11" value="" style="endArrow=none;html=1;rounded=0;fontSize=12;startSize=8;endSize=8;curved=1;" parent="1" edge="1">
          <mxGeometry width="50" height="50" relative="1" as="geometry">
            <mxPoint x="214" y="-36" as="sourcePoint" />
            <mxPoint x="214" y="-95" as="targetPoint" />
          </mxGeometry>
        </mxCell>
        <mxCell id="clrZJGk1RnbeG_WNLF2B-12" value="" style="endArrow=classic;html=1;rounded=0;fontSize=12;startSize=8;endSize=8;curved=1;entryX=1;entryY=0.75;entryDx=0;entryDy=0;" parent="1" target="MHqTSwmImKqVIrDJWGN4-37" edge="1">
          <mxGeometry width="50" height="50" relative="1" as="geometry">
            <mxPoint x="214" y="-93" as="sourcePoint" />
            <mxPoint x="264" y="-143" as="targetPoint" />
          </mxGeometry>
        </mxCell>
        <mxCell id="clrZJGk1RnbeG_WNLF2B-14" value="" style="endArrow=none;html=1;rounded=0;fontSize=12;startSize=8;endSize=8;curved=1;" parent="1" edge="1">
          <mxGeometry width="50" height="50" relative="1" as="geometry">
            <mxPoint x="254" y="-8" as="sourcePoint" />
            <mxPoint x="308" y="-8" as="targetPoint" />
          </mxGeometry>
        </mxCell>
        <mxCell id="clrZJGk1RnbeG_WNLF2B-19" value="" style="endArrow=none;html=1;rounded=0;fontSize=12;startSize=8;endSize=8;curved=1;" parent="1" edge="1">
          <mxGeometry width="50" height="50" relative="1" as="geometry">
            <mxPoint x="307" y="-9" as="sourcePoint" />
            <mxPoint x="307" y="-97" as="targetPoint" />
          </mxGeometry>
        </mxCell>
        <mxCell id="clrZJGk1RnbeG_WNLF2B-21" value="" style="endArrow=classic;html=1;rounded=0;fontSize=12;startSize=8;endSize=8;curved=1;entryX=0.387;entryY=1.02;entryDx=0;entryDy=0;entryPerimeter=0;" parent="1" target="MHqTSwmImKqVIrDJWGN4-36" edge="1">
          <mxGeometry width="50" height="50" relative="1" as="geometry">
            <mxPoint x="305" y="-96" as="sourcePoint" />
            <mxPoint x="355" y="-146" as="targetPoint" />
          </mxGeometry>
        </mxCell>
        <mxCell id="M_15spo1ObYpfNHA64tI-1" value="" style="endArrow=none;html=1;rounded=0;" parent="1" edge="1">
          <mxGeometry relative="1" as="geometry">
            <mxPoint x="59" y="-358" as="sourcePoint" />
            <mxPoint x="382" y="-358" as="targetPoint" />
          </mxGeometry>
        </mxCell>
        <mxCell id="M_15spo1ObYpfNHA64tI-2" value="&amp;nbsp;Can Attempt" style="shape=rhombus;perimeter=rhombusPerimeter;whiteSpace=wrap;html=1;align=center;" parent="1" vertex="1">
          <mxGeometry x="383" y="-385" width="85" height="54" as="geometry" />
        </mxCell>
        <mxCell id="M_15spo1ObYpfNHA64tI-3" value="" style="endArrow=none;html=1;rounded=0;" parent="1" edge="1">
          <mxGeometry relative="1" as="geometry">
            <mxPoint x="466" y="-358" as="sourcePoint" />
            <mxPoint x="514" y="-358" as="targetPoint" />
          </mxGeometry>
        </mxCell>
        <mxCell id="M_15spo1ObYpfNHA64tI-4" value="Quiz" style="whiteSpace=wrap;html=1;align=center;fillColor=#dae8fc;strokeColor=#6c8ebf;" parent="1" vertex="1">
          <mxGeometry x="515" y="-378" width="100" height="40" as="geometry" />
        </mxCell>
        <mxCell id="M_15spo1ObYpfNHA64tI-5" value="" style="endArrow=none;html=1;rounded=0;" parent="1" edge="1">
          <mxGeometry relative="1" as="geometry">
            <mxPoint x="57" y="-353" as="sourcePoint" />
            <mxPoint x="363" y="-351" as="targetPoint" />
          </mxGeometry>
        </mxCell>
        <mxCell id="M_15spo1ObYpfNHA64tI-6" value="" style="endArrow=none;html=1;rounded=0;" parent="1" edge="1">
          <mxGeometry relative="1" as="geometry">
            <mxPoint x="361" y="-351" as="sourcePoint" />
            <mxPoint x="361" y="-274" as="targetPoint" />
          </mxGeometry>
        </mxCell>
        <mxCell id="M_15spo1ObYpfNHA64tI-7" value="" style="endArrow=none;html=1;rounded=0;" parent="1" edge="1">
          <mxGeometry relative="1" as="geometry">
            <mxPoint x="361" y="-274" as="sourcePoint" />
            <mxPoint x="397" y="-274" as="targetPoint" />
          </mxGeometry>
        </mxCell>
        <mxCell id="M_15spo1ObYpfNHA64tI-8" value="Can See" style="shape=rhombus;perimeter=rhombusPerimeter;whiteSpace=wrap;html=1;align=center;" parent="1" vertex="1">
          <mxGeometry x="396" y="-301" width="84" height="51" as="geometry" />
        </mxCell>
        <mxCell id="M_15spo1ObYpfNHA64tI-9" value="" style="endArrow=none;html=1;rounded=0;" parent="1" edge="1">
          <mxGeometry relative="1" as="geometry">
            <mxPoint x="481" y="-276" as="sourcePoint" />
            <mxPoint x="518" y="-276" as="targetPoint" />
          </mxGeometry>
        </mxCell>
        <mxCell id="M_15spo1ObYpfNHA64tI-10" value="Notes" style="whiteSpace=wrap;html=1;align=center;fillColor=#dae8fc;strokeColor=#6c8ebf;" parent="1" vertex="1">
          <mxGeometry x="520" y="-301" width="100" height="40" as="geometry" />
        </mxCell>
        <mxCell id="M_15spo1ObYpfNHA64tI-11" value="" style="endArrow=none;html=1;rounded=0;" parent="1" edge="1">
          <mxGeometry relative="1" as="geometry">
            <mxPoint x="437" y="-250" as="sourcePoint" />
            <mxPoint x="519" y="-196" as="targetPoint" />
          </mxGeometry>
        </mxCell>
        <mxCell id="M_15spo1ObYpfNHA64tI-12" value="Timetable" style="whiteSpace=wrap;html=1;align=center;fillColor=#dae8fc;strokeColor=#6c8ebf;" parent="1" vertex="1">
          <mxGeometry x="520" y="-221" width="100" height="40" as="geometry" />
        </mxCell>
        <mxCell id="M_15spo1ObYpfNHA64tI-13" value="" style="endArrow=none;html=1;rounded=0;" parent="1" edge="1">
          <mxGeometry relative="1" as="geometry">
            <mxPoint x="18" y="8" as="sourcePoint" />
            <mxPoint x="18" y="52" as="targetPoint" />
          </mxGeometry>
        </mxCell>
        <mxCell id="M_15spo1ObYpfNHA64tI-14" value="" style="endArrow=none;html=1;rounded=0;" parent="1" edge="1">
          <mxGeometry relative="1" as="geometry">
            <mxPoint x="19" y="51" as="sourcePoint" />
            <mxPoint x="282" y="51" as="targetPoint" />
          </mxGeometry>
        </mxCell>
        <mxCell id="M_15spo1ObYpfNHA64tI-15" value="can create" style="shape=rhombus;perimeter=rhombusPerimeter;whiteSpace=wrap;html=1;align=center;" parent="1" vertex="1">
          <mxGeometry x="283" y="29" width="78" height="48" as="geometry" />
        </mxCell>
        <mxCell id="M_15spo1ObYpfNHA64tI-16" value="" style="endArrow=none;html=1;rounded=0;" parent="1" edge="1">
          <mxGeometry relative="1" as="geometry">
            <mxPoint x="362" y="52" as="sourcePoint" />
            <mxPoint x="730" y="52" as="targetPoint" />
          </mxGeometry>
        </mxCell>
        <mxCell id="M_15spo1ObYpfNHA64tI-18" value="" style="endArrow=none;html=1;rounded=0;" parent="1" edge="1">
          <mxGeometry width="50" height="50" relative="1" as="geometry">
            <mxPoint x="59" y="-361" as="sourcePoint" />
            <mxPoint x="323" y="-365" as="targetPoint" />
          </mxGeometry>
        </mxCell>
        <mxCell id="M_15spo1ObYpfNHA64tI-19" value="" style="endArrow=none;html=1;rounded=0;" parent="1" edge="1">
          <mxGeometry width="50" height="50" relative="1" as="geometry">
            <mxPoint x="334" y="-139" as="sourcePoint" />
            <mxPoint x="325" y="-365" as="targetPoint" />
          </mxGeometry>
        </mxCell>
        <mxCell id="M_15spo1ObYpfNHA64tI-20" value="" style="endArrow=none;html=1;rounded=0;" parent="1" edge="1">
          <mxGeometry width="50" height="50" relative="1" as="geometry">
            <mxPoint x="334" y="-137" as="sourcePoint" />
            <mxPoint x="384" y="-137" as="targetPoint" />
          </mxGeometry>
        </mxCell>
        <mxCell id="M_15spo1ObYpfNHA64tI-21" value="Submit&amp;nbsp;" style="shape=rhombus;perimeter=rhombusPerimeter;whiteSpace=wrap;html=1;align=center;" parent="1" vertex="1">
          <mxGeometry x="383" y="-169" width="120" height="60" as="geometry" />
        </mxCell>
        <mxCell id="M_15spo1ObYpfNHA64tI-24" value="" style="endArrow=none;html=1;rounded=0;" parent="1" edge="1">
          <mxGeometry relative="1" as="geometry">
            <mxPoint x="505" y="-139" as="sourcePoint" />
            <mxPoint x="571" y="-139" as="targetPoint" />
          </mxGeometry>
        </mxCell>
        <mxCell id="M_15spo1ObYpfNHA64tI-25" value="Assignment" style="rounded=0;whiteSpace=wrap;html=1;fillColor=#dae8fc;strokeColor=#6c8ebf;" parent="1" vertex="1">
          <mxGeometry x="571" y="-156" width="110" height="47" as="geometry" />
        </mxCell>
        <mxCell id="M_15spo1ObYpfNHA64tI-28" value="" style="endArrow=none;html=1;rounded=0;entryX=0;entryY=0.5;entryDx=0;entryDy=0;" parent="1" target="M_15spo1ObYpfNHA64tI-29" edge="1">
          <mxGeometry relative="1" as="geometry">
            <mxPoint x="-13" y="-130" as="sourcePoint" />
            <mxPoint x="95" y="-125" as="targetPoint" />
          </mxGeometry>
        </mxCell>
        <mxCell id="M_15spo1ObYpfNHA64tI-29" value="Address" style="ellipse;whiteSpace=wrap;html=1;align=center;" parent="1" vertex="1">
          <mxGeometry x="115" y="-143" width="78" height="29" as="geometry" />
        </mxCell>
        <mxCell id="M_15spo1ObYpfNHA64tI-30" value="" style="endArrow=none;html=1;rounded=0;" parent="1" edge="1">
          <mxGeometry relative="1" as="geometry">
            <mxPoint x="-4" y="-82" as="sourcePoint" />
            <mxPoint x="-35" y="-71" as="targetPoint" />
          </mxGeometry>
        </mxCell>
        <mxCell id="M_15spo1ObYpfNHA64tI-31" value="UserName" style="ellipse;whiteSpace=wrap;html=1;align=center;" parent="1" vertex="1">
          <mxGeometry x="-87" y="-73" width="81" height="29" as="geometry" />
        </mxCell>
        <mxCell id="M_15spo1ObYpfNHA64tI-32" value="" style="endArrow=none;html=1;rounded=0;entryX=0.692;entryY=0.039;entryDx=0;entryDy=0;entryPerimeter=0;" parent="1" edge="1" target="M_15spo1ObYpfNHA64tI-33">
          <mxGeometry relative="1" as="geometry">
            <mxPoint x="3" y="8" as="sourcePoint" />
            <mxPoint x="-4" y="107" as="targetPoint" />
          </mxGeometry>
        </mxCell>
        <mxCell id="M_15spo1ObYpfNHA64tI-33" value="Experiance" style="ellipse;whiteSpace=wrap;html=1;align=center;" parent="1" vertex="1">
          <mxGeometry x="-91" y="105" width="76" height="31" as="geometry" />
        </mxCell>
        <mxCell id="M_15spo1ObYpfNHA64tI-34" value="" style="endArrow=none;html=1;rounded=0;entryX=0.593;entryY=-0.07;entryDx=0;entryDy=0;entryPerimeter=0;" parent="1" edge="1" target="M_15spo1ObYpfNHA64tI-35">
          <mxGeometry relative="1" as="geometry">
            <mxPoint x="3" y="8" as="sourcePoint" />
            <mxPoint x="27" y="150" as="targetPoint" />
          </mxGeometry>
        </mxCell>
        <mxCell id="M_15spo1ObYpfNHA64tI-35" value="UserName(FK))" style="ellipse;whiteSpace=wrap;html=1;align=center;" parent="1" vertex="1">
          <mxGeometry x="-60" y="140" width="81" height="37" as="geometry" />
        </mxCell>
        <mxCell id="M_15spo1ObYpfNHA64tI-36" value="" style="endArrow=none;html=1;rounded=0;" parent="1" edge="1">
          <mxGeometry relative="1" as="geometry">
            <mxPoint x="725" y="52" as="sourcePoint" />
            <mxPoint x="721" y="-159" as="targetPoint" />
          </mxGeometry>
        </mxCell>
        <mxCell id="M_15spo1ObYpfNHA64tI-38" value="" style="endArrow=none;html=1;rounded=0;" parent="1" edge="1">
          <mxGeometry width="50" height="50" relative="1" as="geometry">
            <mxPoint x="721" y="-159" as="sourcePoint" />
            <mxPoint x="718" y="-365" as="targetPoint" />
          </mxGeometry>
        </mxCell>
        <mxCell id="M_15spo1ObYpfNHA64tI-39" value="" style="endArrow=classic;html=1;rounded=0;" parent="1" edge="1">
          <mxGeometry width="50" height="50" relative="1" as="geometry">
            <mxPoint x="717" y="-363" as="sourcePoint" />
            <mxPoint x="616" y="-363" as="targetPoint" />
          </mxGeometry>
        </mxCell>
        <mxCell id="M_15spo1ObYpfNHA64tI-42" value="" style="endArrow=none;html=1;rounded=0;" parent="1" edge="1">
          <mxGeometry width="50" height="50" relative="1" as="geometry">
            <mxPoint x="309" y="-9" as="sourcePoint" />
            <mxPoint x="395" y="-9" as="targetPoint" />
          </mxGeometry>
        </mxCell>
        <mxCell id="M_15spo1ObYpfNHA64tI-43" value="Manages" style="shape=rhombus;perimeter=rhombusPerimeter;whiteSpace=wrap;html=1;align=center;" parent="1" vertex="1">
          <mxGeometry x="396" y="-41" width="120" height="60" as="geometry" />
        </mxCell>
        <mxCell id="M_15spo1ObYpfNHA64tI-44" value="" style="endArrow=none;html=1;rounded=0;" parent="1" edge="1">
          <mxGeometry relative="1" as="geometry">
            <mxPoint x="515" y="-13" as="sourcePoint" />
            <mxPoint x="707" y="-13" as="targetPoint" />
          </mxGeometry>
        </mxCell>
        <mxCell id="M_15spo1ObYpfNHA64tI-46" value="" style="endArrow=none;html=1;rounded=0;" parent="1" edge="1">
          <mxGeometry relative="1" as="geometry">
            <mxPoint x="703" y="-14" as="sourcePoint" />
            <mxPoint x="695" y="-292" as="targetPoint" />
          </mxGeometry>
        </mxCell>
        <mxCell id="M_15spo1ObYpfNHA64tI-47" value="" style="endArrow=classic;html=1;rounded=0;" parent="1" edge="1">
          <mxGeometry width="50" height="50" relative="1" as="geometry">
            <mxPoint x="694" y="-290" as="sourcePoint" />
            <mxPoint x="622" y="-284" as="targetPoint" />
          </mxGeometry>
        </mxCell>
        <mxCell id="M_15spo1ObYpfNHA64tI-48" value="" style="endArrow=classic;html=1;rounded=0;entryX=1;entryY=0.5;entryDx=0;entryDy=0;" parent="1" target="M_15spo1ObYpfNHA64tI-12" edge="1">
          <mxGeometry width="50" height="50" relative="1" as="geometry">
            <mxPoint x="692" y="-289" as="sourcePoint" />
            <mxPoint x="742" y="-339" as="targetPoint" />
          </mxGeometry>
        </mxCell>
        <mxCell id="M_15spo1ObYpfNHA64tI-51" value="" style="endArrow=none;html=1;rounded=0;" parent="1" edge="1">
          <mxGeometry width="50" height="50" relative="1" as="geometry">
            <mxPoint x="27" y="-82" as="sourcePoint" />
            <mxPoint x="76" y="-67" as="targetPoint" />
          </mxGeometry>
        </mxCell>
        <mxCell id="M_15spo1ObYpfNHA64tI-52" value="Password" style="ellipse;whiteSpace=wrap;html=1;align=center;" parent="1" vertex="1">
          <mxGeometry x="62" y="-69" width="79" height="30" as="geometry" />
        </mxCell>
        <mxCell id="Vx7mAHtiLnQtsnwZUR0e-1" value="UserName(FK)" style="ellipse;whiteSpace=wrap;html=1;align=center;" vertex="1" parent="1">
          <mxGeometry x="17" y="-420" width="80" height="31" as="geometry" />
        </mxCell>
        <mxCell id="Vx7mAHtiLnQtsnwZUR0e-2" value="MobNo" style="ellipse;shape=doubleEllipse;margin=3;whiteSpace=wrap;html=1;align=center;" vertex="1" parent="1">
          <mxGeometry x="76" y="-395" width="72" height="30" as="geometry" />
        </mxCell>
        <mxCell id="Vx7mAHtiLnQtsnwZUR0e-3" value="" style="endArrow=none;html=1;rounded=0;entryX=0;entryY=0.5;entryDx=0;entryDy=0;" edge="1" parent="1" target="Vx7mAHtiLnQtsnwZUR0e-2">
          <mxGeometry relative="1" as="geometry">
            <mxPoint x="-21" y="-366" as="sourcePoint" />
            <mxPoint x="139" y="-366" as="targetPoint" />
          </mxGeometry>
        </mxCell>
        <mxCell id="Vx7mAHtiLnQtsnwZUR0e-4" value="" style="endArrow=none;html=1;rounded=0;" edge="1" parent="1" target="Vx7mAHtiLnQtsnwZUR0e-5">
          <mxGeometry relative="1" as="geometry">
            <mxPoint x="1" y="9" as="sourcePoint" />
            <mxPoint x="47" y="129" as="targetPoint" />
          </mxGeometry>
        </mxCell>
        <mxCell id="Vx7mAHtiLnQtsnwZUR0e-5" value="MobNo" style="ellipse;shape=doubleEllipse;margin=3;whiteSpace=wrap;html=1;align=center;" vertex="1" parent="1">
          <mxGeometry x="2" y="116" width="74" height="30" as="geometry" />
        </mxCell>
        <mxCell id="Vx7mAHtiLnQtsnwZUR0e-6" style="edgeStyle=orthogonalEdgeStyle;rounded=0;orthogonalLoop=1;jettySize=auto;html=1;exitX=0.5;exitY=1;exitDx=0;exitDy=0;" edge="1" parent="1" source="M_15spo1ObYpfNHA64tI-35" target="M_15spo1ObYpfNHA64tI-35">
          <mxGeometry relative="1" as="geometry" />
        </mxCell>
        <mxCell id="Vx7mAHtiLnQtsnwZUR0e-9" value="" style="endArrow=none;html=1;rounded=0;" edge="1" parent="1">
          <mxGeometry relative="1" as="geometry">
            <mxPoint x="-9" y="8" as="sourcePoint" />
            <mxPoint x="54" y="92" as="targetPoint" />
          </mxGeometry>
        </mxCell>
        <mxCell id="Vx7mAHtiLnQtsnwZUR0e-10" value="email" style="ellipse;whiteSpace=wrap;html=1;align=center;" vertex="1" parent="1">
          <mxGeometry x="36" y="78" width="72" height="35" as="geometry" />
        </mxCell>
        <mxCell id="Vx7mAHtiLnQtsnwZUR0e-11" value="" style="endArrow=none;html=1;rounded=0;" edge="1" parent="1">
          <mxGeometry relative="1" as="geometry">
            <mxPoint x="455" y="-41" as="sourcePoint" />
            <mxPoint x="514" y="-61" as="targetPoint" />
          </mxGeometry>
        </mxCell>
        <mxCell id="Vx7mAHtiLnQtsnwZUR0e-12" value="Can See" style="shape=rhombus;perimeter=rhombusPerimeter;whiteSpace=wrap;html=1;align=center;" vertex="1" parent="1">
          <mxGeometry x="473" y="-109" width="78" height="50" as="geometry" />
        </mxCell>
        <mxCell id="Vx7mAHtiLnQtsnwZUR0e-13" value="" style="endArrow=none;html=1;rounded=0;entryX=0;entryY=0.5;entryDx=0;entryDy=0;" edge="1" parent="1" target="M_15spo1ObYpfNHA64tI-25">
          <mxGeometry relative="1" as="geometry">
            <mxPoint x="509" y="-109" as="sourcePoint" />
            <mxPoint x="566" y="-122" as="targetPoint" />
          </mxGeometry>
        </mxCell>
      </root>
    </mxGraphModel>
  </diagram>
  <diagram id="qrQU0Sd5QI8TEw-IMh9e" name="Page-2">
    <mxGraphModel dx="608" dy="357" grid="0" gridSize="10" guides="1" tooltips="1" connect="1" arrows="1" fold="1" page="0" pageScale="1" pageWidth="850" pageHeight="1100" math="0" shadow="0">
      <root>
        <mxCell id="0" />
        <mxCell id="1" parent="0" />
      </root>
    </mxGraphModel>
  </diagram>
</mxfile>
